<?xml version="1.0" encoding="utf-8"?>
<!-- Generator: Adobe Illustrator 22.0.1, SVG Export Plug-In . SVG Version: 6.00 Build 0)  -->
<svg version="1.1" id="Layer_1" xmlns="http://www.w3.org/2000/svg" xmlns:xlink="http://www.w3.org/1999/xlink" x="0px" y="0px"
	 viewBox="0 0 1920 2212" style="enable-background:new 0 0 1920 2212;" xml:space="preserve">
<style type="text/css">
	.st0{fill:#1A213A;}
	.st1{fill:#1B2440;}
	.st2{fill:#1C2745;}
	.st3{fill:#1D294B;}
	.st4{fill:#1E2C51;}
	.st5{fill:#1F2F56;}
	.st6{fill:#20325C;}
	.st7{fill:#213462;}
	.st8{fill:#223767;}
	.st9{fill:#233A6D;}
	.st10{fill:#2D2936;}
	.st11{fill:#403033;}
	.st12{fill:#53382F;}
	.st13{fill:#66402C;}
	.st14{fill:#794728;}
	.st15{fill:#8C4F24;}
	.st16{fill:#9E5721;}
	.st17{fill:#B15E1D;}
	.st18{fill:#C4661A;}
	.st19{fill:#D76E16;}
	.st20{fill:#EA7513;}
	.st21{fill:#FD7D0F;}
	.st22{clip-path:url(#SVGID_2_);}
	.st23{fill:#182E41;}
	.st24{fill:#163B47;}
	.st25{fill:#13474E;}
	.st26{fill:#115454;}
	.st27{fill:#0F615B;}
	.st28{fill:#0D6E61;}
	.st29{fill:#0B7A67;}
	.st30{fill:#09876E;}
	.st31{fill:#079474;}
	.st32{fill:#04A07B;}
	.st33{fill:#02AD81;}
	.st34{fill:#00BA88;}
</style>
<g>
	<path id="Frame_8_" class="st0" d="M972.2,6.6L959.8,0L9.8,548.4L0,551.7v1108L952.1,2209l8.3,3.4l946.5-545.8l13.2-6.6V553.6
		L972.2,6.6z"/>
	<path class="st1" d="M971.3,85.4l-11.5-6.1L75.6,589.6l-9.2,3V1624l886.1,511.3l7.7,3.2l881-508l12.3-6.1V594.5L971.3,85.4z"/>
	<path class="st2" d="M970.5,164.1l-10.6-5.7L141.4,630.9l-8.5,2.8v954.6l820.2,473.3l7.1,2.9l815.4-470.2l11.3-5.7V635.4
		L970.5,164.1z"/>
	<path class="st3" d="M969.6,242.9l-9.8-5.2L207.2,672.2l-7.8,2.6v877.8l754.3,435.2l6.6,2.7l749.9-432.4l10.4-5.2V676.3
		L969.6,242.9z"/>
	<path class="st4" d="M968.8,321.7l-8.9-4.8L273,713.4l-7.1,2.4v801.1l688.4,397.2l6,2.5l684.4-394.6l9.5-4.8v-800L968.8,321.7z"/>
	<path class="st5" d="M968,400.5l-8.1-4.3L338.8,754.7l-6.4,2.1v724.4l622.4,359.2l5.4,2.2l618.8-356.8l8.6-4.3V758.1L968,400.5z"/>
	<path class="st6" d="M967.1,479.2l-7.2-3.9L404.6,795.9l-5.8,1.9v647.7l556.5,321.1l4.8,2l553.3-319l7.7-3.9V799L967.1,479.2z"/>
	<path class="st7" d="M966.3,558l-6.4-3.4L470.4,837.2l-5.1,1.7v571l490.6,283.1l4.3,1.8l487.7-281.2l6.8-3.4V839.9L966.3,558z"/>
	<path class="st8" d="M965.4,636.8l-5.5-2.9L536.2,878.5l-4.4,1.5v494.2l424.7,245l3.7,1.5l422.2-243.5l5.9-2.9V880.8L965.4,636.8z"
		/>
	<path id="Frame_7_" class="st9" d="M964.6,715.6l-4.7-2.5L602,919.7l-3.7,1.2v417.5l358.8,207l3.1,1.3l356.7-205.7l5-2.5V921.7
		L964.6,715.6z"/>
</g>
</svg>
